REM DIRINDEX 1\2\6,1\2\7,1\2\8,1\2\9,1\3\10,1\3\11,1\4\12,1\4\13,1\4\14,1\5\15,1\5\16,1\5\17
REM DIRNAME cjc020,folder01,folder02,folder03,folder04,folder05,folder06,folder07,folder08,folder09,folder10,folder11,folder12,folder13,folder14,folder15,folder16
TITLE ""
FILE "1900_3_102 sec18_1719_1737.mp3" MP3
  TRACK 01 AUDIO
    TITLE "0:"
    INDEX 01 00:00:00
  TRACK 02 AUDIO
    TITLE "17:cjc020_9423"
    INDEX 01 00:00:11
  TRACK 03 AUDIO
    TITLE "0:"
    INDEX 01 00:01:38
  TRACK 04 AUDIO
    TITLE "16:cjc020_9424"
    INDEX 01 00:01:40
  TRACK 05 AUDIO
    TITLE "0:"
    INDEX 01 00:02:59
  TRACK 06 AUDIO
    TITLE "17:cjc020_9425"
    INDEX 01 00:03:41
  TRACK 07 AUDIO
    TITLE "0:"
    INDEX 01 00:06:30
  TRACK 08 AUDIO
    TITLE "16:cjc020_9426"
    INDEX 01 00:06:35
  TRACK 09 AUDIO
    TITLE "0:"
    INDEX 01 00:07:39
  TRACK 10 AUDIO
    TITLE "17:cjc020_9427"
    INDEX 01 00:08:24
  TRACK 11 AUDIO
    TITLE "0:"
    INDEX 01 00:09:10
  TRACK 12 AUDIO
    TITLE "16:cjc020_9428"
    INDEX 01 00:09:16
  TRACK 13 AUDIO
    TITLE "0:"
    INDEX 01 00:10:16
  TRACK 14 AUDIO
    TITLE "17:cjc020_9429"
    INDEX 01 00:11:03
  TRACK 15 AUDIO
    TITLE "0:"
    INDEX 01 00:13:20
  TRACK 16 AUDIO
    TITLE "16:cjc020_9430"
    INDEX 01 00:13:26
  TRACK 17 AUDIO
    TITLE "0:"
    INDEX 01 00:14:37
  TRACK 18 AUDIO
    TITLE "17:cjc020_9431"
    INDEX 01 00:15:21
  TRACK 19 AUDIO
    TITLE "0:"
    INDEX 01 00:16:49
  TRACK 20 AUDIO
    TITLE "16:cjc020_9432"
    INDEX 01 00:16:53
  TRACK 21 AUDIO
    TITLE "0:"
    INDEX 01 00:17:70
  TRACK 22 AUDIO
    TITLE "17:cjc020_9433"
    INDEX 01 00:18:56
  TRACK 23 AUDIO
    TITLE "0:"
    INDEX 01 00:20:12
  TRACK 24 AUDIO
    TITLE "16:cjc020_9434"
    INDEX 01 00:20:16
  TRACK 25 AUDIO
    TITLE "0:"
    INDEX 01 00:21:27
  TRACK 26 AUDIO
    TITLE "17:cjc020_9435"
    INDEX 01 00:22:09
  TRACK 27 AUDIO
    TITLE "0:"
    INDEX 01 00:24:33
  TRACK 28 AUDIO
    TITLE "16:cjc020_9436"
    INDEX 01 00:24:35
  TRACK 29 AUDIO
    TITLE "0:"
    INDEX 01 00:25:50
  TRACK 30 AUDIO
    TITLE "17:cjc020_9437"
    INDEX 01 00:26:34
  TRACK 31 AUDIO
    TITLE "0:"
    INDEX 01 00:29:58
  TRACK 32 AUDIO
    TITLE "16:cjc020_9438"
    INDEX 01 00:29:64
  TRACK 33 AUDIO
    TITLE "0:"
    INDEX 01 00:30:65
  TRACK 34 AUDIO
    TITLE "17:cjc020_9439"
    INDEX 01 00:31:53
  TRACK 35 AUDIO
    TITLE "0:"
    INDEX 01 00:33:11
  TRACK 36 AUDIO
    TITLE "16:cjc020_9440"
    INDEX 01 00:33:17
  TRACK 37 AUDIO
    TITLE "0:"
    INDEX 01 00:34:42
  TRACK 38 AUDIO
    TITLE "17:cjc020_9441"
    INDEX 01 00:35:27
  TRACK 39 AUDIO
    TITLE "0:"
    INDEX 01 00:36:19
  TRACK 40 AUDIO
    TITLE "16:cjc020_9442"
    INDEX 01 00:36:27
  TRACK 41 AUDIO
    TITLE "0:"
    INDEX 01 00:37:36
  TRACK 42 AUDIO
    TITLE "17:cjc020_9443"
    INDEX 01 00:38:20
  TRACK 43 AUDIO
    TITLE "0:"
    INDEX 01 00:39:51
  TRACK 44 AUDIO
    TITLE "16:cjc020_9444"
    INDEX 01 00:39:54
  TRACK 45 AUDIO
    TITLE "0:"
    INDEX 01 00:40:70
  TRACK 46 AUDIO
    TITLE "17:cjc020_9445"
    INDEX 01 00:41:53
  TRACK 47 AUDIO
    TITLE "0:"
    INDEX 01 00:43:07
  TRACK 48 AUDIO
    TITLE "16:cjc020_9446"
    INDEX 01 00:43:11
  TRACK 49 AUDIO
    TITLE "0:"
    INDEX 01 00:44:40
  TRACK 50 AUDIO
    TITLE "17:cjc020_9447"
    INDEX 01 00:45:24
  TRACK 51 AUDIO
    TITLE "0:"
    INDEX 01 00:46:60
  TRACK 52 AUDIO
    TITLE "16:cjc020_9448"
    INDEX 01 00:46:68
  TRACK 53 AUDIO
    TITLE "0:"
    INDEX 01 00:48:14
  TRACK 54 AUDIO
    TITLE "17:cjc020_9449"
    INDEX 01 00:48:71
  TRACK 55 AUDIO
    TITLE "0:"
    INDEX 01 00:50:31
  TRACK 56 AUDIO
    TITLE "16:cjc020_9450"
    INDEX 01 00:50:39
  TRACK 57 AUDIO
    TITLE "0:"
    INDEX 01 00:51:50
  TRACK 58 AUDIO
    TITLE "17:cjc020_9451"
    INDEX 01 00:52:36
  TRACK 59 AUDIO
    TITLE "0:"
    INDEX 01 00:53:62
  TRACK 60 AUDIO
    TITLE "16:cjc020_9452"
    INDEX 01 00:53:66
  TRACK 61 AUDIO
    TITLE "0:"
    INDEX 01 00:54:74
  TRACK 62 AUDIO
    TITLE "17:cjc020_9453"
    INDEX 01 00:55:63
  TRACK 63 AUDIO
    TITLE "0:"
    INDEX 01 00:56:53
  TRACK 64 AUDIO
    TITLE "16:cjc020_9454"
    INDEX 01 00:56:57
  TRACK 65 AUDIO
    TITLE "0:"
    INDEX 01 00:57:62
  TRACK 66 AUDIO
    TITLE "17:cjc020_9455"
    INDEX 01 00:58:46
  TRACK 67 AUDIO
    TITLE "0:"
    INDEX 01 01:00:29
  TRACK 68 AUDIO
    TITLE "16:cjc020_9456"
    INDEX 01 01:00:33
  TRACK 69 AUDIO
    TITLE "0:"
    INDEX 01 01:01:38
  TRACK 70 AUDIO
    TITLE "17:cjc020_9457"
    INDEX 01 01:02:24
  TRACK 71 AUDIO
    TITLE "0:"
    INDEX 01 01:03:35
  TRACK 72 AUDIO
    TITLE "16:cjc020_9458"
    INDEX 01 01:03:41
  TRACK 73 AUDIO
    TITLE "0:"
    INDEX 01 01:04:56
  TRACK 74 AUDIO
    TITLE "17:cjc020_9459"
    INDEX 01 01:05:38
  TRACK 75 AUDIO
    TITLE "0:"
    INDEX 01 01:07:64
  TRACK 76 AUDIO
    TITLE "16:cjc020_9460"
    INDEX 01 01:07:66
  TRACK 77 AUDIO
    TITLE "0:"
    INDEX 01 01:09:36
